PARTICIPANTS: use this file for creating the class diagram in mastery task 01

@startuml

class GetBookActivity {
 +execute(GetBookRequest) : GetBookResponse
}
class GetPublishingStatusActivity {
 +execute(GetPublishingStatusRequest) : GetPublishingStatusResponse
}
class RemoveBookFromCatalogActivity {
 +execute(RemoveBookFromCatalogRequest) : RemoveBookFromCatalogResponse
}
class SubmitBookForPublishingActivity {
 +execute(SubmitBookForPublishingRequest) : SubmitBookForPublishingResponse
}

class RecommendationsServiceClient {
 -RecommendationsService: recommendationsService
 +getBookRecommendations(BookGenre) : List<BookRecommendation>
}

class CatalogDao {
 -dynamoDbMapper : DynamoDBMapper
 +getBookFromCatalog(String bookId) : CatalogItemVersion
 -getLatestVersionOfBook(String bookId) : CatalogItemVersion
 +RemoveBookFromCatalog(String bookId) : CatalogItemVersion
}
class PublishingStatusDao {
 -dynamoDbMapper : DynamoDBMapper
 +setPublishingStatus(publishingRecordId, publishingRecordStatus, bookId) : PublishingStatusItem
 +setPublishingStatus(publishingRecordId, publishingRecordStatus, bookId, message) : PublishingStatusItem
}

class CatalogItemVersion {
 * @DynamoDBHashKey bookId : String
 ..
 * @DynamoDBRangeKey version : int
 --
 -inactive : boolean
 -title : String
 -author : String
 -text : String
 -genre : BookGenre
}
class PublishingStatusItem {
 * @DynamoDBHashKey publishingRecordId : String
 ..
 * @DynamoDBRangeKey status : PublishingRecordStatus
 --
 -statusMessage : String
 -bookId : String
}

class BookNotFoundException {
}
class PublishingStatusNotFoundException {
}




GetBookActivity o-- RecommendationsServiceClient
GetBookActivity o-- CatalogDao
SubmitBookForPublishingActivity o-- PublishingStatusDao
RemoveBookFromCatalogActivity o-- CatalogDao
CatalogDao -- CatalogItemVersion
PublishingStatusDao -- PublishingStatusItem

CatalogDao -- BookNotFoundException
PublishingStatusDao -- PublishingStatusNotFoundException











@enduml
